#!OML:ASF G:\JayActor3\Patient Classification 1\Patient 1\Session 6\male.ASF
:FULLY-SPECIFIED
:DEGREES
2501
root 6.58421 15.9698 -19.1763 -4.60736 -127.284 6.40344
lowerback -2.97801 -0.255559 1.98189
upperback 1.83204 -0.458116 0.459491
thorax 3.54412 -0.191214 -0.665868
lowerneck -3.57459 2.84224 2.61658
upperneck 31.4009 1.77935 -0.836888
head 10.687 0.24054 -0.731644
rclavicle 1.05356e-014 -6.36111e-015
rhumerus -52.4516 2.20721 -80.1684
rradius 84.9653
rwrist -40.9592
rhand -45.6298 -9.40328
rfingers 7.12502
rthumb -18.3896 -38.554
lclavicle 1.05356e-014 -6.36111e-015
lhumerus -39.3702 15.3589 65.1456
lradius 34.5825
lwrist 36.041
lhand -9.30843 9.11906
lfingers 7.12502
lthumb 16.6495 38.425
rfemur -16.077 9.6823 8.42042
rtibia 31.7187
rfoot -16.1918 -21.0568
rtoes -2.95919
lfemur 13.7904 -3.28921 -7.48798
ltibia 7.03421
lfoot -18.2588 21.3666
ltoes -6.87286
2502
root 6.58149 15.9695 -19.1777 -4.59033 -127.339 6.38095
lowerback -2.95308 -0.24081 1.98417
upperback 1.84115 -0.437221 0.435769
thorax 3.5398 -0.180426 -0.690191
lowerneck -3.63918 2.74367 2.61653
upperneck 31.3282 1.64185 -0.811921
head 10.6685 0.184645 -0.734723
rclavicle 7.12767e-014 -1.31198e-014
rhumerus -52.4306 2.16458 -80.1818
rradius 84.9673
rwrist -40.9889
rhand -45.654 -9.43504
rfingers 7.12502
rthumb -18.4129 -38.5836
lclavicle 7.12767e-014 -1.31198e-014
lhumerus -39.3837 15.2775 65.2489
lradius 34.2864
lwrist 35.854
lhand -9.18098 9.19327
lfingers 7.12502
lthumb 16.7722 38.4888
rfemur -16.0887 9.71355 8.41022
rtibia 31.7286
rfoot -16.1783 -21.036
rtoes -3.00004
lfemur 13.843 -3.18574 -7.49728
ltibia 7
lfoot -18.2561 21.3235
ltoes -6.81826
2503
root 6.57873 15.9693 -19.1791 -4.56739 -127.399 6.35273
lowerback -2.9312 -0.222836 1.98937
upperback 1.85666 -0.412275 0.408565
thorax 3.54391 -0.167413 -0.719547
lowerneck -3.7194 2.64665 2.62214
upperneck 31.2668 1.50258 -0.778522
head 10.6576 0.129437 -0.735985
rclavicle -6.08778e-014 4.37326e-015
rhumerus -52.4014 2.11052 -80.1999
rradius 84.9663
rwrist -41.0198
rhand -45.6606 -9.45701
rfingers 7.12502
rthumb -18.4192 -38.605
lclavicle -6.08778e-014 4.37326e-015
lhumerus -39.3913 15.2083 65.3309
lradius 33.9805
lwrist 35.655
lhand -9.03412 9.27147
lfingers 7.12502
lthumb 16.9136 38.555
rfemur -16.1065 9.75228 8.39663
rtibia 31.7433
rfoot -16.1642 -21.0181
rtoes -3.05019
lfemur 13.9055 -3.07601 -7.50986
ltibia 6.94856
lfoot -18.2547 21.2763
ltoes -6.73793
2504
root 6.57582 15.9691 -19.1804 -4.54099 -127.466 6.32101
lowerback -2.91368 -0.202837 1.99918
upperback 1.87866 -0.385103 0.380496
thorax 3.55727 -0.153075 -0.752292
lowerneck -3.80843 2.55152 2.63179
upperneck 31.2128 1.36374 -0.741576
head 10.6514 0.0751977 -0.736724
rclavicle 1.62258e-014 1.19271e-015
rhumerus -52.3632 2.05059 -80.2203
rradius 84.9612
rwrist -41.0485
rhand -45.6635 -9.47341
rfingers 7.12502
rthumb -18.422 -38.6211
lclavicle 1.62258e-014 1.19271e-015
lhumerus -39.3974 15.1544 65.3942
lradius 33.6678
lwrist 35.4513
lhand -8.87781 9.34607
lfingers 7.12502
lthumb 17.0641 38.6166
rfemur -16.1301 9.79354 8.3806
rtibia 31.7635
rfoot -16.1461 -21.0019
rtoes -3.11641
lfemur 13.9821 -2.96019 -7.52464
ltibia 6.8741
lfoot -18.2458 21.2298
ltoes -6.65605
2505
root 6.57286 15.9689 -19.1816 -4.49297 -127.532 6.26822
lowerback -2.90224 -0.185508 1.99825
upperback 1.90314 -0.361171 0.351471
thorax 3.57661 -0.140523 -0.780233
lowerneck -3.8975 2.46025 2.63791
upperneck 31.1628 1.22916 -0.700857
head 10.6468 0.0227015 -0.735199
rclavicle -5.49888e-014 -2.38542e-015
rhumerus -52.3196 1.99534 -80.2417
rradius 84.9535
rwrist -41.0734
rhand -45.6676 -9.49329
rfingers 7.12502
rthumb -18.426 -38.6406
lclavicle -5.49888e-014 -2.38542e-015
lhumerus -39.4059 15.1221 65.4372
lradius 33.3403
lwrist 35.2481
lhand -8.71671 9.4131
lfingers 7.12502
lthumb 17.2191 38.6702
rfemur -16.1632 9.8333 8.34903
rtibia 31.7904
rfoot -16.1279 -20.987
rtoes -3.20435
lfemur 14.069 -2.84227 -7.5529
ltibia 6.77119
lfoot -18.2254 21.1832
ltoes -6.57005
